Results
version=1
nRows=23
nColumns=27
inDegrees=yes
endheader
time	r_x	r_y	r_z	t_x	t_y	t_z	sternoclavicular_r2	sternoclavicular_r3	unrotscap_r3	unrotscap_r2	acromioclavicular_r2	acromioclavicular_r3	acromioclavicular_r1	unrothum_r1	unrothum_r3	unrothum_r2	elv_angle	shoulder_elv	shoulder1_r2	shoulder_rot	elbow_flexion	pro_sup	deviation	flexion	wrist_hand_r1	wrist_hand_r3
      1.25000000	     90.00000023	      0.00000039	     10.00000002	     -0.40234749	      0.36280222	      0.29988021	     -7.36882547	      3.12108668	     -3.12108668	      7.36882547	     -1.49203726	     12.05812033	      5.42004210	     -5.42004210	    -12.05812033	      1.49203726	     50.76013259	     30.44962376	    -50.76013259	     -0.01957614	     79.10135397	     24.62005027	     -0.00000052	      0.00000000	     -0.00000071	      0.00000000
      1.25500000	     90.00000023	      0.00000039	     10.00000002	     -0.40221057	      0.36286015	      0.29961067	     -7.41769262	      3.14178450	     -3.14178450	      7.41769262	     -1.50193187	     12.13808504	      5.45598569	     -5.45598569	    -12.13808504	      1.50193187	     51.32147218	     30.65155368	    -51.32147218	      0.25252970	     78.50697223	     22.58607981	     -0.00000052	      0.00000000	     -0.00000071	      0.00000000
      1.26000000	     90.00000023	      0.00000039	     10.00000002	     -0.40181755	      0.36289042	      0.29961031	     -7.47892687	      3.16772044	     -3.16772044	      7.47892687	     -1.51433056	     12.23828690	      5.50102574	     -5.50102574	    -12.23828690	      1.51433056	     51.77573721	     30.90458723	    -51.77573721	      0.15117645	     78.11232506	     24.42013200	     -0.00000052	      0.00000000	     -0.00000071	      0.00000000
      1.26500000	     90.00000023	      0.00000039	     10.00000002	     -0.40172938	      0.36299778	      0.29968812	     -7.56672248	      3.20490651	     -3.20490651	      7.56672248	     -1.53210738	     12.38195294	      5.56560263	     -5.56560263	    -12.38195294	      1.53210738	     52.11165886	     31.26737819	    -52.11165886	      0.41911532	     77.52689225	     23.98820140	     -0.00000052	      0.00000000	     -0.00000071	      0.00000000
      1.27000000	     90.00000023	      0.00000039	     10.00000002	     -0.40159365	      0.36309096	      0.29972353	     -7.62966065	      3.23156415	     -3.23156415	      7.62966065	     -1.54485108	     12.48494303	      5.61189597	     -5.61189597	    -12.48494303	      1.54485108	     52.48546400	     31.52745267	    -52.48546400	      0.24804444	     77.16328194	     25.73300055	     -0.00000052	      0.00000000	     -0.00000071	      0.00000000
      1.27500000	     90.00000023	      0.00000039	     10.00000002	     -0.40178118	      0.36303454	      0.29954058	     -7.71882424	      3.26932964	     -3.26932964	      7.71882424	     -1.56290489	     12.63084760	      5.67747907	     -5.67747907	    -12.63084760	      1.56290489	     52.87110728	     31.89589642	    -52.87110728	      0.99113078	     76.23047853	     22.43420625	     -0.00000052	      0.00000000	     -0.00000071	      0.00000000
      1.28000000	     90.00000023	      0.00000039	     10.00000002	     -0.40146380	      0.36313454	      0.29953690	     -7.78714208	      3.29826585	     -3.29826585	      7.78714208	     -1.57673787	     12.74264083	      5.72772935	     -5.72772935	    -12.74264083	      1.57673787	     53.08110025	     32.17820094	    -53.08110025	      0.90255325	     75.77311557	     23.86805556	     -0.00000052	      0.00000000	     -0.00000071	      0.00000000
      1.28500000	     90.00000023	      0.00000039	     10.00000002	     -0.40105240	      0.36310397	      0.29965494	     -7.83208918	      3.31730332	     -3.31730332	      7.83208918	     -1.58583874	     12.81619089	      5.76078960	     -5.76078960	    -12.81619089	      1.58583874	     53.48447045	     32.36393234	    -53.48447045	      0.91345155	     75.41220164	     24.47756638	     -0.00000052	      0.00000000	     -0.00000071	      0.00000000
      1.29000000	     90.00000023	      0.00000039	     10.00000002	     -0.40041580	      0.36344106	      0.30012804	     -7.87095149	      3.33376356	     -3.33376356	      7.87095149	     -1.59370757	     12.87978398	      5.78937426	     -5.78937426	    -12.87978398	      1.59370757	     53.63971067	     32.52452004	    -53.63971067	      1.27911815	     74.79691362	     22.56044873	     -0.00000052	      0.00000000	     -0.00000071	      0.00000000
      1.29500000	     90.00000023	      0.00000039	     10.00000002	     -0.40023736	      0.36344053	      0.29995543	     -7.96084153	      3.37183674	     -3.37183674	      7.96084153	     -1.61190847	     13.02687729	      5.85549169	     -5.85549169	    -13.02687729	      1.61190847	     54.10558946	     32.89596566	    -54.10558946	      1.07628912	     74.22212456	     24.51084118	     -0.00000052	      0.00000000	     -0.00000071	      0.00000000
      1.30000000	     90.00000023	      0.00000039	     10.00000002	     -0.40019468	      0.36362456	      0.29992481	     -8.02821630	      3.40037351	     -3.40037351	      8.02821630	     -1.62555049	     13.13712729	      5.90504830	     -5.90504830	    -13.13712729	      1.62555049	     54.32630335	     33.17437315	    -54.32630335	      1.25153480	     73.66017431	     24.70631373	     -0.00000052	      0.00000000	     -0.00000071	      0.00000000
      1.30500000	     90.00000023	      0.00000039	     10.00000002	     -0.39992253	      0.36388624	      0.29994631	     -8.07248312	      3.41912285	     -3.41912285	      8.07248312	     -1.63451363	     13.20956417	      5.93760818	     -5.93760818	    -13.20956417	      1.63451363	     54.59662182	     33.35729352	    -54.59662182	      1.62243884	     73.01960974	     22.27131686	     -0.00000052	      0.00000000	     -0.00000071	      0.00000000
      1.31000000	     90.00000023	      0.00000039	     10.00000002	     -0.39990977	      0.36363865	      0.30007698	     -8.13339434	      3.44492197	     -3.44492197	      8.13339434	     -1.64684691	     13.30923742	      5.98241063	     -5.98241063	    -13.30923742	      1.64684691	     55.17507797	     33.60899220	    -55.17507797	      1.39366849	     72.48263988	     24.95098883	     -0.00000052	      0.00000000	     -0.00000071	      0.00000000
      1.31500000	     90.00000023	      0.00000039	     10.00000002	     -0.39997767	      0.36396236	      0.29996847	     -8.22887734	      3.48536406	     -3.48536406	      8.22887734	     -1.66618027	     13.46548288	      6.05264188	     -6.05264188	    -13.46548288	      1.66618027	     55.51249422	     34.00354915	    -55.51249422	      1.79767509	     71.63100121	     23.77708610	     -0.00000052	      0.00000000	     -0.00000071	      0.00000000
      1.32000000	     90.00000023	      0.00000039	     10.00000002	     -0.39996753	      0.36389260	      0.29962559	     -8.31223594	      3.52067083	     -3.52067083	      8.31223594	     -1.68305869	     13.60188835	      6.11395520	     -6.11395520	    -13.60188835	      1.68305869	     55.75411407	     34.34800543	    -55.75411407	      2.01374934	     71.08187515	     24.45697729	     -0.00000052	      0.00000000	     -0.00000071	      0.00000000
      1.32500000	     90.00000023	      0.00000039	     10.00000002	     -0.39957987	      0.36420274	      0.29944583	     -8.37480296	      3.54717126	     -3.54717126	      8.37480296	     -1.69572724	     13.70427109	      6.15997554	     -6.15997554	    -13.70427109	      1.69572724	     55.99833409	     34.60654624	    -55.99833409	      2.04838243	     70.52892737	     24.19675086	     -0.00000052	      0.00000000	     -0.00000071	      0.00000000
      1.33000000	     90.00000023	      0.00000039	     10.00000002	     -0.39954803	      0.36368317	      0.29959581	     -8.43258787	      3.57164623	     -3.57164623	      8.43258787	     -1.70742751	     13.79882856	      6.20247847	     -6.20247847	    -13.79882856	      1.70742751	     56.27214834	     34.84532633	    -56.27214834	      2.43598749	     69.79861178	     23.28073839	     -0.00000052	      0.00000000	     -0.00000071	      0.00000000
      1.33500000	     90.00000023	      0.00000039	     10.00000002	     -0.39884426	      0.36417922	      0.29991063	     -8.47334549	      3.58890923	     -3.58890923	      8.47334549	     -1.71568010	     13.86552307	      6.23245720	     -6.23245720	    -13.86552307	      1.71568010	     56.01949150	     35.01374587	    -56.01949150	      2.80455759	     69.43216318	     21.83616505	     -0.00000052	      0.00000000	     -0.00000071	      0.00000000
      1.34000000	     90.00000023	      0.00000039	     10.00000002	     -0.39837694	      0.36429778	      0.29979285	     -8.54354011	      3.61864036	     -3.61864036	      8.54354011	     -1.72989308	     13.98038739	      6.28408792	     -6.28408792	    -13.98038739	      1.72989308	     56.37755881	     35.30380561	    -56.37755881	      2.57821000	     68.95697759	     24.61601178	     -0.00000052	      0.00000000	     -0.00000071	      0.00000000
      1.34500000	     90.00000023	      0.00000039	     10.00000002	     -0.39812918	      0.36446837	      0.29961372	     -8.60163273	      3.64324565	     -3.64324565	      8.60163273	     -1.74165566	     14.07544838	      6.32681718	     -6.32681718	    -14.07544838	      1.74165566	     56.63870828	     35.54385723	    -56.63870828	      2.98767124	     68.25771157	     23.22118164	     -0.00000052	      0.00000000	     -0.00000071	      0.00000000
      1.35000000	     90.00000023	      0.00000039	     10.00000002	     -0.39819326	      0.36449625	      0.29950278	     -8.68121967	      3.67695492	     -3.67695492	      8.68121967	     -1.75777039	     14.20568202	      6.38535630	     -6.38535630	    -14.20568202	      1.75777039	     56.89344985	     35.87272816	    -56.89344985	      2.96777886	     67.66369232	     24.12913999	     -0.00000052	      0.00000000	     -0.00000071	      0.00000000
      1.35500000	     90.00000023	      0.00000039	     10.00000002	     -0.39793743	      0.36415927	      0.29966149	     -8.73214506	      3.69852451	     -3.69852451	      8.73214506	     -1.76808175	     14.28901476	      6.42281380	     -6.42281380	    -14.28901476	      1.76808175	     57.11578561	     36.08316318	    -57.11578561	      3.20479731	     67.12067334	     23.42032567	     -0.00000052	      0.00000000	     -0.00000071	      0.00000000
      1.36000000	     90.00000023	      0.00000039	     10.00000002	     -0.39808687	      0.36424829	      0.29947629	     -8.80467892	      3.72924643	     -3.72924643	      8.80467892	     -1.78276838	     14.40770694	      6.47616511	     -6.47616511	    -14.40770694	      1.78276838	     57.43090252	     36.38288918	    -57.43090252	      3.40927533	     66.45414082	     23.28022505	     -0.00000052	      0.00000000	     -0.00000071	      0.00000000
